<svg width="512" height="512" viewBox="0 0 512 512" fill="none" xmlns="http://www.w3.org/2000/svg">

  <!-- Milk fill: white layer -->
  <path
    d="M 103 108 L 409 108 L 362 442 Q 256 466 150 442 Z"
    fill="white"
    opacity="0.55"
  />
  <!-- Milk fill: faint green tint -->
  <path
    d="M 103 108 L 409 108 L 362 442 Q 256 466 150 442 Z"
    fill="#4A7C59"
    opacity="0.07"
  />

  <!-- Milk surface arc -->
  <path d="M 103 108 Q 256 98 409 108"
    stroke="#4A7C59" stroke-width="10" stroke-linecap="round" fill="none" opacity="0.45"/>

  <!-- Left side -->
  <line x1="97.5" y1="63" x2="143.5" y2="444"
    stroke="#4A7C59" stroke-width="18" stroke-linecap="round"/>
  <!-- Right side -->
  <line x1="414.5" y1="63" x2="368.5" y2="444"
    stroke="#4A7C59" stroke-width="18" stroke-linecap="round"/>

  <!-- Rim arc -->
  <path d="M 97.5 63 Q 256 53 414.5 63"
    stroke="#4A7C59" stroke-width="18" stroke-linecap="round" fill="none"/>

  <!-- Base arc -->
  <path d="M 143.5 444 Q 256 468 368.5 444"
    stroke="#4A7C59" stroke-width="18" stroke-linecap="round" fill="none"/>

  <!-- Bubble 1 -->
  <circle cx="205" cy="330" r="27" stroke="#4A7C59" stroke-width="13" fill="none" opacity="0.90"/>
  <!-- Bubble 2 -->
  <circle cx="292" cy="245" r="20" stroke="#4A7C59" stroke-width="11" fill="none" opacity="0.75"/>
  <!-- Bubble 3 -->
  <circle cx="248" cy="170" r="14" stroke="#4A7C59" stroke-width="9"  fill="none" opacity="0.55"/>

  <!-- Glass highlight -->
  <line x1="115" y1="110" x2="152" y2="318"
    stroke="#4A7C59" stroke-width="7" stroke-linecap="round" opacity="0.22"/>

</svg>
